<?xml version="1.0" standalone="no"?>
<!DOCTYPE svg PUBLIC "-//W3C//DTD SVG 20010904//EN"
 "http://www.w3.org/TR/2001/REC-SVG-20010904/DTD/svg10.dtd">
<svg version="1.0" xmlns="http://www.w3.org/2000/svg"
 width="420.000000pt" height="420.000000pt" viewBox="0 0 420.000000 420.000000"
 preserveAspectRatio="xMidYMid meet">
<g transform="translate(0.000000,420.000000) scale(0.100000,-0.100000)"
fill="#000000" stroke="none">
<path d="M350 2445 l0 -1405 355 0 355 0 0 350 0 350 345 0 345 0 0 -350 0
-350 355 0 355 0 0 350 0 350 345 0 345 0 0 -350 0 -350 355 0 355 0 0 1405 0
1405 -355 0 -355 0 0 -350 0 -350 -1045 0 -1045 0 0 350 0 350 -355 0 -355 0
0 -1405z m2100 -350 l0 -345 -345 0 -345 0 0 345 0 345 345 0 345 0 0 -345z"/>
</g>
</svg>
